<?xml version="1.0" encoding="utf-8"?>
<!-- Generator: Adobe Illustrator 26.0.1, SVG Export Plug-In . SVG Version: 6.00 Build 0)  -->
<svg version="1.1" id="Layer_1" xmlns="http://www.w3.org/2000/svg" xmlns:xlink="http://www.w3.org/1999/xlink" x="0px" y="0px"
	 viewBox="0 0 141 42" style="enable-background:new 0 0 141 42;" xml:space="preserve">
<style type="text/css">
	.st0{fill:#999999;}
</style>
<path class="st0" d="M71.2,19.6c-0.5-0.3-1-0.6-1.6-0.7c0.2-0.1,0.4-0.2,0.6-0.3c0.8-0.5,1.5-1.1,1.9-1.8c0.5-0.7,0.7-1.6,0.7-2.5
	c0-1-0.2-1.9-0.5-2.7c-0.3-0.7-0.8-1.3-1.4-1.8c-0.6-0.5-1.4-0.8-2.3-1.1c-0.9-0.2-1.9-0.3-3-0.3h-7.2v22.1h7.7
	c1.5,0,2.8-0.2,3.8-0.7c1.1-0.5,1.9-1.2,2.5-2.2c0.6-0.9,0.9-2.1,0.9-3.5c0-0.9-0.2-1.8-0.6-2.6C72.5,20.7,72,20.1,71.2,19.6z
	 M65.7,10.8c1,0,1.8,0.1,2.4,0.4c0.6,0.2,1.1,0.6,1.4,1.1c0.3,0.5,0.5,1.2,0.5,2c0,0.7-0.2,1.4-0.5,1.9c-0.3,0.5-0.8,0.9-1.5,1.2
	c-0.6,0.3-1.4,0.4-2.2,0.4h-4.4v-7H65.7z M70.1,26.3c-0.3,0.6-0.8,1-1.5,1.4c-0.6,0.3-1.4,0.5-2.4,0.5h-4.8v-7.9h4.9
	c1,0,1.8,0.2,2.4,0.5c0.6,0.3,1.1,0.8,1.4,1.4c0.3,0.6,0.4,1.3,0.4,2.1C70.6,25,70.4,25.7,70.1,26.3z"/>
<path class="st0" d="M134.3,15.2c-0.5-0.5-1-0.8-1.7-1.1c-0.7-0.2-1.5-0.3-2.3-0.3c-1,0-2,0.2-2.8,0.6c-0.8,0.4-1.5,0.9-2,1.5
	c-0.2,0.2-0.3,0.4-0.4,0.6c-0.2-0.5-0.5-1-0.9-1.3c-0.5-0.5-1-0.8-1.7-1c-0.6-0.2-1.4-0.3-2.1-0.3c-1.1,0-2,0.2-2.9,0.6
	c-0.8,0.4-1.4,0.9-2,1.5l-0.1-1.8h-2.7v16.4h2.8v-12c0.1-0.2,0.2-0.5,0.4-0.7c0.3-0.5,0.8-0.9,1.3-1.2c0.6-0.3,1.2-0.4,2.1-0.4
	c0.7,0,1.3,0.1,1.8,0.4c0.5,0.2,0.9,0.6,1.2,1.1c0.3,0.5,0.4,1.2,0.4,2.1v10.8h2.8V19.7c0-0.4,0.1-0.8,0.2-1.1
	c0.2-0.5,0.4-0.9,0.7-1.3c0.3-0.4,0.7-0.7,1.2-0.9c0.5-0.2,1-0.3,1.6-0.3c0.7,0,1.3,0.1,1.8,0.3c0.5,0.2,0.9,0.6,1.2,1.1
	c0.3,0.5,0.4,1.2,0.4,2.1v10.8h2.8V19.7c0-1-0.1-1.9-0.4-2.7C135.1,16.3,134.8,15.7,134.3,15.2z"/>
<path class="st0" d="M89.6,16.2c-0.6-0.8-1.4-1.3-2.4-1.8c-0.9-0.4-2-0.6-3.1-0.6c-1.1,0-2.2,0.2-3.1,0.6c-0.9,0.4-1.7,1-2.3,1.8
	c-0.6,0.7-1.1,1.6-1.5,2.7c-0.3,1-0.5,2.1-0.5,3.3v0.3c0,1.2,0.2,2.3,0.5,3.3c0.3,1,0.8,1.9,1.5,2.7c0.7,0.7,1.4,1.3,2.4,1.8
	c0.9,0.4,2,0.6,3.1,0.6c1.2,0,2.2-0.2,3.1-0.6c0.9-0.4,1.7-1,2.3-1.8c0.7-0.8,1.2-1.6,1.5-2.7c0.3-1,0.5-2.1,0.5-3.3v-0.3
	c0-1.2-0.2-2.3-0.5-3.3C90.7,17.8,90.2,16.9,89.6,16.2z M88.8,22.5c0,0.8-0.1,1.6-0.3,2.3c-0.2,0.7-0.5,1.4-0.9,1.9
	c-0.4,0.6-0.9,1-1.5,1.3c-0.6,0.3-1.2,0.5-2,0.5c-0.8,0-1.5-0.2-2-0.5c-0.6-0.3-1.1-0.8-1.5-1.3c-0.4-0.6-0.7-1.2-0.9-1.9
	c-0.2-0.7-0.3-1.5-0.3-2.3v-0.3c0-0.8,0.1-1.6,0.3-2.3c0.2-0.7,0.5-1.4,0.9-1.9c0.4-0.6,0.9-1,1.5-1.3c0.6-0.3,1.3-0.5,2-0.5
	c0.8,0,1.5,0.2,2,0.5c0.6,0.3,1.1,0.8,1.5,1.3c0.4,0.6,0.7,1.2,0.9,1.9c0.2,0.7,0.3,1.5,0.3,2.3V22.5z"/>
<path class="st0" d="M107.3,16.2c-0.6-0.8-1.4-1.3-2.4-1.8c-0.9-0.4-2-0.6-3.1-0.6c-1.1,0-2.2,0.2-3.1,0.6c-0.9,0.4-1.7,1-2.3,1.8
	c-0.6,0.7-1.1,1.6-1.5,2.7c-0.3,1-0.5,2.1-0.5,3.3v0.3c0,1.2,0.2,2.3,0.5,3.3c0.3,1,0.8,1.9,1.5,2.7c0.7,0.7,1.4,1.3,2.4,1.8
	c0.9,0.4,2,0.6,3.1,0.6c1.2,0,2.2-0.2,3.1-0.6c0.9-0.4,1.7-1,2.3-1.8c0.7-0.8,1.2-1.6,1.5-2.7c0.3-1,0.5-2.1,0.5-3.3v-0.3
	c0-1.2-0.2-2.3-0.5-3.3C108.4,17.8,107.9,16.9,107.3,16.2z M106.4,22.5c0,0.8-0.1,1.6-0.3,2.3c-0.2,0.7-0.5,1.4-0.9,1.9
	c-0.4,0.6-0.9,1-1.5,1.3c-0.6,0.3-1.2,0.5-2,0.5c-0.8,0-1.5-0.2-2-0.5c-0.6-0.3-1.1-0.8-1.5-1.3c-0.4-0.6-0.7-1.2-0.9-1.9
	c-0.2-0.7-0.3-1.5-0.3-2.3v-0.3c0-0.8,0.1-1.6,0.3-2.3c0.2-0.7,0.5-1.4,0.9-1.9c0.4-0.6,0.9-1,1.5-1.3c0.6-0.3,1.3-0.5,2-0.5
	c0.8,0,1.5,0.2,2,0.5c0.6,0.3,1.1,0.8,1.5,1.3c0.4,0.6,0.7,1.2,0.9,1.9c0.2,0.7,0.3,1.5,0.3,2.3V22.5z"/>
<path class="st0" d="M18.2,18.3c7.8-4.9,18.3-1.3,13.9,7.3c-4.4,8.6-44.7-7.3-28.2,0.6c16.5,7.9,22.9,24,29.6,8.8
	c6.8-15.2,14.9-48.1-8-28.1C2.7,26.9,8.4,24.4,18.2,18.3z"/>
</svg>
