<svg xmlns="http://www.w3.org/2000/svg" xmlns:svgjs="http://svgjs.com/svgjs" xmlns:xlink="http://www.w3.org/1999/xlink" width="288" height="288"><svg xmlns="http://www.w3.org/2000/svg" width="288" height="288" data-name="Layer 1" viewBox="0 0 100 100"><path fill="#ccc" d="M50.8,3.57A45.75,45.75,0,1,0,96.54,49.32,45.8,45.8,0,0,0,50.8,3.57ZM63.49,30.71a.69.69,0,0,1-.69.69H57.3a2.45,2.45,0,0,0-2.45,2.44V39.6h7.83a.69.69,0,0,1,.68.75l-.68,8.12a.69.69,0,0,1-.69.63H54.85V76.05a.69.69,0,0,1-.69.69H44.31a.69.69,0,0,1-.69-.69V49.1H38.7a.69.69,0,0,1-.69-.69V40.29a.69.69,0,0,1,.69-.69h4.92V31.78A9.88,9.88,0,0,1,53.5,21.9h9.3a.69.69,0,0,1,.69.69Z" class="color000 svgShape"/></svg></svg>