<svg xmlns="http://www.w3.org/2000/svg" xmlns:svgjs="http://svgjs.com/svgjs" xmlns:xlink="http://www.w3.org/1999/xlink" width="288" height="288"><svg xmlns="http://www.w3.org/2000/svg" width="288" height="288" fill="none" viewBox="0 0 24 24"><path fill="#ccc" d="M11 1.25C10.5858 1.25 10.25 1.58579 10.25 2V16C10.25 17.2426 9.24264 18.25 8 18.25C6.75736 18.25 5.75 17.2426 5.75 16C5.75 14.7574 6.75736 13.75 8 13.75C8.41421 13.75 8.75 13.4142 8.75 13V10C8.75 9.58579 8.41421 9.25 8 9.25C4.27208 9.25 1.25 12.2721 1.25 16C1.25 19.7279 4.27208 22.75 8 22.75C11.7279 22.75 14.75 19.7279 14.75 16V10.2171C16.2655 11.1872 18.0675 11.75 20 11.75C20.4142 11.75 20.75 11.4142 20.75 11V8C20.75 7.58579 20.4142 7.25 20 7.25C17.1005 7.25 14.75 4.8995 14.75 2C14.75 1.58579 14.4142 1.25 14 1.25H11Z" class="color2E2E2E svgShape"/></svg></svg>